<?xml version="1.0" encoding="iso-8859-1"?>
<!-- Uploaded to: SVG Repo, www.svgrepo.com, Generator: SVG Repo Mixer Tools -->
<!DOCTYPE svg PUBLIC "-//W3C//DTD SVG 1.1//EN" "http://www.w3.org/Graphics/SVG/1.1/DTD/svg11.dtd">
<svg fill="#000000" height="800px" width="800px" version="1.1" id="Capa_1" xmlns="http://www.w3.org/2000/svg" xmlns:xlink="http://www.w3.org/1999/xlink" 
	 viewBox="0 0 413.842 413.842" xml:space="preserve">
<path d="M401.395,341.29l-69.568-69.568c-4.731-4.732-12.402-4.732-17.134,0l-7.343,7.343l-28.907-28.908
	c20.261-26.247,32.335-59.122,32.335-94.769C310.777,69.707,241.07,0,155.389,0C69.707,0,0,69.707,0,155.388
	c0,85.682,69.707,155.389,155.389,155.389c35.646,0,68.521-12.073,94.769-32.335l28.907,28.908l-7.343,7.343
	c-4.731,4.731-4.731,12.402,0,17.134l69.569,69.568c16.597,16.597,43.507,16.597,60.104,0
	C417.992,384.797,417.992,357.887,401.395,341.29z M155.389,79.34c-41.934,0-76.049,34.115-76.049,76.049c0,11.046-8.954,20-20,20
	s-20-8.954-20-20C39.339,91.4,91.399,39.34,155.389,39.34c11.046,0,20,8.954,20,20S166.435,79.34,155.389,79.34z"/>
</svg>